<svg width="345" height="61" viewBox="0 0 345 61" fill="none" xmlns="http://www.w3.org/2000/svg">
<path d="M10.3125 17.2812L0.875 14.4688L2.3125 9.75L11.75 13.25L11.4688 2.5H16.25L15.9375 13.4062L25.2188 9.96875L26.6562 14.7188L17.0625 17.5625L23.25 26.0312L19.375 28.9688L13.5625 19.9688L7.9375 28.75L4.03125 25.9062L10.3125 17.2812ZM76.375 31.4688C76.375 36.6146 75.1979 40.7604 72.8438 43.9062C70.4896 47.0521 67.3021 48.625 63.2812 48.625C59.1771 48.625 55.9479 47.3229 53.5938 44.7188V61H47.8125V14.1875H53.0938L53.375 17.9375C55.7292 15.0208 59 13.5625 63.1875 13.5625C67.25 13.5625 70.4583 15.0938 72.8125 18.1562C75.1875 21.2188 76.375 25.4792 76.375 30.9375V31.4688ZM70.5938 30.8125C70.5938 27 69.7812 23.9896 68.1562 21.7812C66.5312 19.5729 64.3021 18.4688 61.4688 18.4688C57.9688 18.4688 55.3438 20.0208 53.5938 23.125V39.2812C55.3229 42.3646 57.9688 43.9062 61.5312 43.9062C64.3021 43.9062 66.5 42.8125 68.125 40.625C69.7708 38.4167 70.5938 35.1458 70.5938 30.8125ZM112.312 31.4688C112.312 36.6146 111.135 40.7604 108.781 43.9062C106.427 47.0521 103.24 48.625 99.2188 48.625C95.1146 48.625 91.8854 47.3229 89.5312 44.7188V61H83.75V14.1875H89.0312L89.3125 17.9375C91.6667 15.0208 94.9375 13.5625 99.125 13.5625C103.188 13.5625 106.396 15.0938 108.75 18.1562C111.125 21.2188 112.312 25.4792 112.312 30.9375V31.4688ZM106.531 30.8125C106.531 27 105.719 23.9896 104.094 21.7812C102.469 19.5729 100.24 18.4688 97.4062 18.4688C93.9062 18.4688 91.2812 20.0208 89.5312 23.125V39.2812C91.2604 42.3646 93.9062 43.9062 97.4688 43.9062C100.24 43.9062 102.438 42.8125 104.062 40.625C105.708 38.4167 106.531 35.1458 106.531 30.8125ZM133.25 43.9062C135.312 43.9062 137.115 43.2812 138.656 42.0312C140.198 40.7812 141.052 39.2188 141.219 37.3438H146.688C146.583 39.2812 145.917 41.125 144.688 42.875C143.458 44.625 141.812 46.0208 139.75 47.0625C137.708 48.1042 135.542 48.625 133.25 48.625C128.646 48.625 124.979 47.0938 122.25 44.0312C119.542 40.9479 118.188 36.7396 118.188 31.4062V30.4375C118.188 27.1458 118.792 24.2188 120 21.6562C121.208 19.0938 122.938 17.1042 125.188 15.6875C127.458 14.2708 130.135 13.5625 133.219 13.5625C137.01 13.5625 140.156 14.6979 142.656 16.9688C145.177 19.2396 146.521 22.1875 146.688 25.8125H141.219C141.052 23.625 140.219 21.8333 138.719 20.4375C137.24 19.0208 135.406 18.3125 133.219 18.3125C130.281 18.3125 128 19.375 126.375 21.5C124.771 23.6042 123.969 26.6562 123.969 30.6562V31.75C123.969 35.6458 124.771 38.6458 126.375 40.75C127.979 42.8542 130.271 43.9062 133.25 43.9062ZM151.781 30.8125C151.781 25.625 153.01 21.4583 155.469 18.3125C157.927 15.1458 161.146 13.5625 165.125 13.5625C169.083 13.5625 172.219 14.9167 174.531 17.625V0H180.312V48H175L174.719 44.375C172.406 47.2083 169.188 48.625 165.062 48.625C161.146 48.625 157.948 47.0208 155.469 43.8125C153.01 40.6042 151.781 36.4167 151.781 31.25V30.8125ZM157.562 31.4688C157.562 35.3021 158.354 38.3021 159.938 40.4688C161.521 42.6354 163.708 43.7188 166.5 43.7188C170.167 43.7188 172.844 42.0729 174.531 38.7812V23.25C172.802 20.0625 170.146 18.4688 166.562 18.4688C163.729 18.4688 161.521 19.5625 159.938 21.75C158.354 23.9375 157.562 27.1771 157.562 31.4688ZM209 39.0312C209 37.4688 208.406 36.2604 207.219 35.4062C206.052 34.5312 204 33.7812 201.062 33.1562C198.146 32.5312 195.823 31.7812 194.094 30.9062C192.385 30.0312 191.115 28.9896 190.281 27.7812C189.469 26.5729 189.062 25.1354 189.062 23.4688C189.062 20.6979 190.229 18.3542 192.562 16.4375C194.917 14.5208 197.917 13.5625 201.562 13.5625C205.396 13.5625 208.5 14.5521 210.875 16.5312C213.271 18.5104 214.469 21.0417 214.469 24.125H208.656C208.656 22.5417 207.979 21.1771 206.625 20.0312C205.292 18.8854 203.604 18.3125 201.562 18.3125C199.458 18.3125 197.812 18.7708 196.625 19.6875C195.438 20.6042 194.844 21.8021 194.844 23.2812C194.844 24.6771 195.396 25.7292 196.5 26.4375C197.604 27.1458 199.594 27.8229 202.469 28.4688C205.365 29.1146 207.708 29.8854 209.5 30.7812C211.292 31.6771 212.615 32.7604 213.469 34.0312C214.344 35.2812 214.781 36.8125 214.781 38.625C214.781 41.6458 213.573 44.0729 211.156 45.9062C208.74 47.7188 205.604 48.625 201.75 48.625C199.042 48.625 196.646 48.1458 194.562 47.1875C192.479 46.2292 190.844 44.8958 189.656 43.1875C188.49 41.4583 187.906 39.5938 187.906 37.5938H193.688C193.792 39.5312 194.562 41.0729 196 42.2188C197.458 43.3438 199.375 43.9062 201.75 43.9062C203.938 43.9062 205.688 43.4688 207 42.5938C208.333 41.6979 209 40.5104 209 39.0312ZM243.188 48C242.854 47.3333 242.583 46.1458 242.375 44.4375C239.688 47.2292 236.479 48.625 232.75 48.625C229.417 48.625 226.677 47.6875 224.531 45.8125C222.406 43.9167 221.344 41.5208 221.344 38.625C221.344 35.1042 222.677 32.375 225.344 30.4375C228.031 28.4792 231.802 27.5 236.656 27.5H242.281V24.8438C242.281 22.8229 241.677 21.2188 240.469 20.0312C239.26 18.8229 237.479 18.2188 235.125 18.2188C233.062 18.2188 231.333 18.7396 229.938 19.7812C228.542 20.8229 227.844 22.0833 227.844 23.5625H222.031C222.031 21.875 222.625 20.25 223.812 18.6875C225.021 17.1042 226.646 15.8542 228.688 14.9375C230.75 14.0208 233.01 13.5625 235.469 13.5625C239.365 13.5625 242.417 14.5417 244.625 16.5C246.833 18.4375 247.979 21.1146 248.062 24.5312V40.0938C248.062 43.1979 248.458 45.6667 249.25 47.5V48H243.188ZM233.594 43.5938C235.406 43.5938 237.125 43.125 238.75 42.1875C240.375 41.25 241.552 40.0312 242.281 38.5312V31.5938H237.75C230.667 31.5938 227.125 33.6667 227.125 37.8125C227.125 39.625 227.729 41.0417 228.938 42.0625C230.146 43.0833 231.698 43.5938 233.594 43.5938ZM263.406 48H257.625V0H263.406V48ZM283.844 40.1562L292.219 14.1875H298.125L286 48H281.594L269.344 14.1875H275.25L283.844 40.1562ZM316.812 43.9062C318.875 43.9062 320.677 43.2812 322.219 42.0312C323.76 40.7812 324.615 39.2188 324.781 37.3438H330.25C330.146 39.2812 329.479 41.125 328.25 42.875C327.021 44.625 325.375 46.0208 323.312 47.0625C321.271 48.1042 319.104 48.625 316.812 48.625C312.208 48.625 308.542 47.0938 305.812 44.0312C303.104 40.9479 301.75 36.7396 301.75 31.4062V30.4375C301.75 27.1458 302.354 24.2188 303.562 21.6562C304.771 19.0938 306.5 17.1042 308.75 15.6875C311.021 14.2708 313.698 13.5625 316.781 13.5625C320.573 13.5625 323.719 14.6979 326.219 16.9688C328.74 19.2396 330.083 22.1875 330.25 25.8125H324.781C324.615 23.625 323.781 21.8333 322.281 20.4375C320.802 19.0208 318.969 18.3125 316.781 18.3125C313.844 18.3125 311.562 19.375 309.938 21.5C308.333 23.6042 307.531 26.6562 307.531 30.6562V31.75C307.531 35.6458 308.333 38.6458 309.938 40.75C311.542 42.8542 313.833 43.9062 316.812 43.9062ZM336.875 44.9688C336.875 43.9688 337.167 43.1354 337.75 42.4688C338.354 41.8021 339.25 41.4688 340.438 41.4688C341.625 41.4688 342.521 41.8021 343.125 42.4688C343.75 43.1354 344.062 43.9688 344.062 44.9688C344.062 45.9271 343.75 46.7292 343.125 47.375C342.521 48.0208 341.625 48.3438 340.438 48.3438C339.25 48.3438 338.354 48.0208 337.75 47.375C337.167 46.7292 336.875 45.9271 336.875 44.9688Z" fill="white"/>
</svg>
